<svg width="100" height="100" viewBox="0 0 100 100" xmlns="http://www.w3.org/2000/svg" fill-rule="evenodd" clip-rule="evenodd" stroke-linejoin="round" stroke-miterlimit="2">
    <path d="M50.001 3.518c-10.985 0-20.463 6.27-25.743 15.37C17.38 12.01 7.218 16.517.003 24.385c7.92 7.74 12.56 17.76 12.56 28.532 0 10.773-4.64 20.792-12.56 28.533 7.215 7.868 17.377 12.375 25.74 5.507 5.28 9.1 14.758 15.37 25.743 15.37 10.985 0 20.463-6.27 25.743-15.37 8.363 6.868 18.525 2.36 25.74-5.508-7.92-7.74-12.56-17.76-12.56-28.532S92.08 32.126 100 24.385c-7.215-7.868-17.377-12.375-25.74-5.508-5.28-9.1-14.758-15.37-25.743-15.37z" fill="#4A2A1A"/>
</svg>
